<?xml version="1.0" encoding="UTF-8" ?>
<svg xmlns="http://www.w3.org/2000/svg" xmlns:xlink="http://www.w3.org/1999/xlink" width="474pt" height="440pt" viewBox="0.00 0.00 474.23 440.00">
<g id="graph0" class="graph" transform="scale(1 1) rotate(0) translate(4 436)">
<title>TreeArray</title>
<polygon fill="#ffffff" stroke="transparent" points="-4,4 -4,-436 470.2304,-436 470.2304,4 -4,4"/>
<!-- idx10 -->
<g id="node1" class="node">
<title>idx10</title>
<polygon fill="none" stroke="#000000" points="124.6921,-36 -.2313,-36 -.2313,0 124.6921,0 124.6921,-36"/>
<text text-anchor="middle" x="62.2304" y="-13.8" font-family="Times,serif" font-size="14.00" fill="#000000">10 → (spreakley,...)</text>
</g>
<!-- n10 -->
<!-- idx10&#45;&gt;n10 -->
<!-- idx9 -->
<g id="node2" class="node">
<title>idx9</title>
<polygon fill="none" stroke="#000000" points="121.1921,-80 3.2687,-80 3.2687,-44 121.1921,-44 121.1921,-80"/>
<text text-anchor="middle" x="62.2304" y="-57.8" font-family="Times,serif" font-size="14.00" fill="#000000">9 → (scramoge,...)</text>
</g>
<!-- idx9&#45;&gt;idx10 -->
<!-- n9 -->
<!-- idx9&#45;&gt;n9 -->
<!-- idx7 -->
<g id="node3" class="node">
<title>idx7</title>
<polygon fill="none" stroke="#000000" points="117.709,-168 6.7518,-168 6.7518,-132 117.709,-132 117.709,-168"/>
<text text-anchor="middle" x="62.2304" y="-145.8" font-family="Times,serif" font-size="14.00" fill="#000000">7 → (knaptoft,...)</text>
</g>
<!-- idx8 -->
<g id="node4" class="node">
<title>idx8</title>
<polygon fill="none" stroke="#000000" points="116.2304,-124 8.2304,-124 8.2304,-88 116.2304,-88 116.2304,-124"/>
<text text-anchor="middle" x="62.2304" y="-101.8" font-family="Times,serif" font-size="14.00" fill="#000000">8 → (rigolet,...)</text>
</g>
<!-- idx7&#45;&gt;idx8 -->
<!-- n7 -->
<!-- idx7&#45;&gt;n7 -->
<!-- idx8&#45;&gt;idx9 -->
<!-- n8 -->
<!-- idx8&#45;&gt;n8 -->
<!-- idx5 -->
<g id="node5" class="node">
<title>idx5</title>
<polygon fill="none" stroke="#000000" points="116.2304,-256 8.2304,-256 8.2304,-220 116.2304,-220 116.2304,-256"/>
<text text-anchor="middle" x="62.2304" y="-233.8" font-family="Times,serif" font-size="14.00" fill="#000000">5 → (duddo,...)</text>
</g>
<!-- idx6 -->
<g id="node10" class="node">
<title>idx6</title>
<polygon fill="none" stroke="#000000" points="116.2304,-212 8.2304,-212 8.2304,-176 116.2304,-176 116.2304,-212"/>
<text text-anchor="middle" x="62.2304" y="-189.8" font-family="Times,serif" font-size="14.00" fill="#000000">6 → (aa1st,...)</text>
</g>
<!-- idx5&#45;&gt;idx6 -->
<!-- n5 -->
<g id="node15" class="node">
<title>n5</title>
<ellipse fill="#ffffff" stroke="#000000" cx="337.2304" cy="-238" rx="11" ry="11"/>
<text text-anchor="middle" x="337.2304" y="-233.8" font-family="Times,serif" font-size="14.00" fill="#000000">5</text>
</g>
<!-- idx5&#45;&gt;n5 -->
<g id="edge23" class="edge">
<title>idx5-&gt;n5</title>
<path fill="none" stroke="#000000" stroke-dasharray="1,5" d="M116.4784,-238C186.3257,-238 256.173,-238 326.0203,-238"/>
</g>
<!-- idx1 -->
<g id="node6" class="node">
<title>idx1</title>
<polygon fill="none" stroke="#000000" points="118.814,-432 5.6468,-432 5.6468,-396 118.814,-396 118.814,-432"/>
<text text-anchor="middle" x="62.2304" y="-409.8" font-family="Times,serif" font-size="14.00" fill="#000000">1 → (harbottle,...)</text>
</g>
<!-- idx2 -->
<g id="node9" class="node">
<title>idx2</title>
<polygon fill="none" stroke="#000000" points="116.2304,-388 8.2304,-388 8.2304,-352 116.2304,-352 116.2304,-388"/>
<text text-anchor="middle" x="62.2304" y="-365.8" font-family="Times,serif" font-size="14.00" fill="#000000">2 → (dattuck,...)</text>
</g>
<!-- idx1&#45;&gt;idx2 -->
<!-- n1 -->
<g id="node11" class="node">
<title>n1</title>
<ellipse fill="#ffffff" stroke="#000000" cx="365.2304" cy="-414" rx="11" ry="11"/>
<text text-anchor="middle" x="365.2304" y="-409.8" font-family="Times,serif" font-size="14.00" fill="#000000">1</text>
</g>
<!-- idx1&#45;&gt;n1 -->
<g id="edge19" class="edge">
<title>idx1-&gt;n1</title>
<path fill="none" stroke="#000000" stroke-dasharray="1,5" d="M119.0429,-414C197.419,-414 275.7951,-414 354.1712,-414"/>
</g>
<!-- idx3 -->
<g id="node7" class="node">
<title>idx3</title>
<polygon fill="none" stroke="#000000" points="116.2304,-344 8.2304,-344 8.2304,-308 116.2304,-308 116.2304,-344"/>
<text text-anchor="middle" x="62.2304" y="-321.8" font-family="Times,serif" font-size="14.00" fill="#000000">3 → (flunary,...)</text>
</g>
<!-- idx4 -->
<g id="node8" class="node">
<title>idx4</title>
<polygon fill="none" stroke="#000000" points="116.2304,-300 8.2304,-300 8.2304,-264 116.2304,-264 116.2304,-300"/>
<text text-anchor="middle" x="62.2304" y="-277.8" font-family="Times,serif" font-size="14.00" fill="#000000">4 → (bindle,...)</text>
</g>
<!-- idx3&#45;&gt;idx4 -->
<!-- n3 -->
<g id="node13" class="node">
<title>n3</title>
<ellipse fill="#ffffff" stroke="#000000" cx="396.2304" cy="-326" rx="11" ry="11"/>
<text text-anchor="middle" x="396.2304" y="-321.8" font-family="Times,serif" font-size="14.00" fill="#000000">3</text>
</g>
<!-- idx3&#45;&gt;n3 -->
<g id="edge21" class="edge">
<title>idx3-&gt;n3</title>
<path fill="none" stroke="#000000" stroke-dasharray="1,5" d="M116.3749,-326C205.925,-326 295.4751,-326 385.0252,-326"/>
</g>
<!-- idx4&#45;&gt;idx5 -->
<!-- n4 -->
<g id="node14" class="node">
<title>n4</title>
<ellipse fill="#ffffff" stroke="#000000" cx="278.2304" cy="-282" rx="11" ry="11"/>
<text text-anchor="middle" x="278.2304" y="-277.8" font-family="Times,serif" font-size="14.00" fill="#000000">4</text>
</g>
<!-- idx4&#45;&gt;n4 -->
<g id="edge22" class="edge">
<title>idx4-&gt;n4</title>
<path fill="none" stroke="#000000" stroke-dasharray="1,5" d="M116.6523,-282C166.8299,-282 217.0074,-282 267.185,-282"/>
</g>
<!-- idx2&#45;&gt;idx3 -->
<!-- n2 -->
<g id="node12" class="node">
<title>n2</title>
<ellipse fill="#ffffff" stroke="#000000" cx="337.2304" cy="-370" rx="11" ry="11"/>
<text text-anchor="middle" x="337.2304" y="-365.8" font-family="Times,serif" font-size="14.00" fill="#000000">2</text>
</g>
<!-- idx2&#45;&gt;n2 -->
<g id="edge20" class="edge">
<title>idx2-&gt;n2</title>
<path fill="none" stroke="#000000" stroke-dasharray="1,5" d="M116.4784,-370C186.3257,-370 256.173,-370 326.0203,-370"/>
</g>
<!-- idx6&#45;&gt;idx7 -->
<!-- n6 -->
<g id="node16" class="node">
<title>n6</title>
<ellipse fill="#ffffff" stroke="#000000" cx="396.2304" cy="-194" rx="11" ry="11"/>
<text text-anchor="middle" x="396.2304" y="-189.8" font-family="Times,serif" font-size="14.00" fill="#000000">6</text>
</g>
<!-- idx6&#45;&gt;n6 -->
<g id="edge24" class="edge">
<title>idx6-&gt;n6</title>
<path fill="none" stroke="#000000" stroke-dasharray="1,5" d="M116.3749,-194C205.925,-194 295.4751,-194 385.0252,-194"/>
</g>
<!-- n1&#45;&gt;idx6 -->
<g id="edge29" class="edge">
<title>n1-&gt;idx6</title>
<path fill="none" stroke="#0000ff" d="M354.7833,-410.0645C343.5255,-405.58 325.3292,-397.6133 311.2304,-388 220.5484,-326.168 223.4147,-277.9923 130.2304,-220 128.5001,-218.9231 126.7179,-217.8788 124.8974,-216.8671"/>
<polygon fill="#0000ff" stroke="#0000ff" points="126.0336,-213.5172 115.5364,-212.0819 122.8474,-219.7501 126.0336,-213.5172"/>
<text text-anchor="middle" x="185.503" y="-318.5156" font-family="Times,serif" font-size="14.00" fill="#000000">delete and move</text>
</g>
<!-- n1&#45;&gt;n2 -->
<g id="edge10" class="edge">
<title>n1-&gt;n2</title>
<path fill="none" stroke="#000000" d="M359.2923,-404.6687C354.5406,-397.2018 347.9094,-386.7812 343.1599,-379.3178"/>
</g>
<!-- n1&#45;&gt;n3 -->
<g id="edge11" class="edge">
<title>n1-&gt;n3</title>
<path fill="none" stroke="#000000" d="M368.9082,-403.5597C374.8745,-386.6233 386.5942,-353.3544 392.5573,-336.4267"/>
</g>
<!-- n2&#45;&gt;n4 -->
<g id="edge12" class="edge">
<title>n2-&gt;n4</title>
<path fill="none" stroke="#000000" d="M329.5293,-361.6195C325.129,-356.6593 319.629,-350.1593 315.2304,-344 302.7006,-326.4546 290.3053,-304.4981 283.52,-291.9781"/>
</g>
<!-- n2&#45;&gt;n5 -->
<g id="edge13" class="edge">
<title>n2-&gt;n5</title>
<path fill="none" stroke="#000000" d="M337.2304,-358.7458C337.2304,-333.8072 337.2304,-274.1378 337.2304,-249.2258"/>
</g>
<!-- n3&#45;&gt;n6 -->
<g id="edge17" class="edge">
<title>n3-&gt;n6</title>
<path fill="none" stroke="#000000" d="M396.2304,-314.7458C396.2304,-289.8072 396.2304,-230.1378 396.2304,-205.2258"/>
</g>
<!-- n3&#45;&gt;n7 -->
<!-- n4&#45;&gt;n8 -->
<!-- n4&#45;&gt;n9 -->
<!-- n5&#45;&gt;n10 -->
</g>
</svg>