<?xml version="1.0" encoding="UTF-8" ?>
<svg xmlns="http://www.w3.org/2000/svg" xmlns:xlink="http://www.w3.org/1999/xlink" width="338pt" height="204pt" viewBox="0.00 0.00 338.00 204.00">
<g id="graph0" class="graph" transform="scale(1 1) rotate(0) translate(4 200)">
<title>BinaryTree</title>
<polygon fill="#ffffff" stroke="transparent" points="-4,4 -4,-200 334,-200 334,4 -4,4"/>
<!-- 1 -->
<g id="node1" class="node">
<title>1</title>
<ellipse fill="#ffffff" stroke="#000000" cx="165" cy="-185" rx="11" ry="11"/>
<text text-anchor="middle" x="165" y="-180.8" font-family="Times,serif" font-size="14.00" fill="#000000">3</text>
</g>
<!-- 2 -->
<g id="node2" class="node">
<title>2</title>
<ellipse fill="#ffffff" stroke="#000000" cx="121" cy="-127" rx="11" ry="11"/>
<text text-anchor="middle" x="121" y="-122.8" font-family="Times,serif" font-size="14.00" fill="#000000">2</text>
</g>
<!-- 1&#45;&gt;2 -->
<g id="edge1" class="edge">
<title>1-&gt;2</title>
<path fill="none" stroke="#000000" d="M158.125,-175.9375C149.8105,-164.9775 135.9098,-146.6539 127.6827,-135.809"/>
</g>
<!-- 3 -->
<g id="node3" class="node">
<title>3</title>
<ellipse fill="#ffffff" stroke="#000000" cx="209" cy="-127" rx="11" ry="11"/>
<text text-anchor="middle" x="209" y="-122.8" font-family="Times,serif" font-size="14.00" fill="#000000">2</text>
</g>
<!-- 1&#45;&gt;3 -->
<g id="edge2" class="edge">
<title>1-&gt;3</title>
<path fill="none" stroke="#000000" d="M171.875,-175.9375C180.1895,-164.9775 194.0902,-146.6539 202.3173,-135.809"/>
</g>
<!-- 4 -->
<g id="node4" class="node">
<title>4</title>
<ellipse fill="#ffffff" stroke="#000000" cx="55" cy="-69" rx="11" ry="11"/>
<text text-anchor="middle" x="55" y="-64.8" font-family="Times,serif" font-size="14.00" fill="#000000">1</text>
</g>
<!-- 2&#45;&gt;4 -->
<g id="edge3" class="edge">
<title>2-&gt;4</title>
<path fill="none" stroke="#000000" d="M112.6411,-119.6543C100.015,-108.5587 76.208,-87.6373 63.4995,-76.4693"/>
</g>
<!-- 5 -->
<g id="node5" class="node">
<title>5</title>
<ellipse fill="#ffffff" stroke="#000000" cx="121" cy="-69" rx="11" ry="11"/>
<text text-anchor="middle" x="121" y="-64.8" font-family="Times,serif" font-size="14.00" fill="#000000">1</text>
</g>
<!-- 2&#45;&gt;5 -->
<g id="edge4" class="edge">
<title>2-&gt;5</title>
<path fill="none" stroke="#000000" d="M121,-115.817C121,-105.5465 121,-90.4083 121,-80.1487"/>
</g>
<!-- 6 -->
<g id="node6" class="node">
<title>6</title>
<ellipse fill="#ffffff" stroke="#000000" cx="209" cy="-69" rx="11" ry="11"/>
<text text-anchor="middle" x="209" y="-64.8" font-family="Times,serif" font-size="14.00" fill="#000000">1</text>
</g>
<!-- 3&#45;&gt;6 -->
<g id="edge5" class="edge">
<title>3-&gt;6</title>
<path fill="none" stroke="#000000" d="M209,-115.817C209,-105.5465 209,-90.4083 209,-80.1487"/>
</g>
<!-- 7 -->
<g id="node7" class="node">
<title>7</title>
<ellipse fill="#ffffff" stroke="#000000" cx="275" cy="-69" rx="11" ry="11"/>
<text text-anchor="middle" x="275" y="-64.8" font-family="Times,serif" font-size="14.00" fill="#000000">1</text>
</g>
<!-- 3&#45;&gt;7 -->
<g id="edge6" class="edge">
<title>3-&gt;7</title>
<path fill="none" stroke="#000000" d="M217.3589,-119.6543C229.985,-108.5587 253.792,-87.6373 266.5005,-76.4693"/>
</g>
<!-- 8 -->
<g id="node8" class="node">
<title>8</title>
<ellipse fill="#ffffff" stroke="#000000" cx="11" cy="-11" rx="11" ry="11"/>
<text text-anchor="middle" x="11" y="-6.8" font-family="Times,serif" font-size="14.00" fill="#000000">0</text>
</g>
<!-- 4&#45;&gt;8 -->
<g id="edge7" class="edge">
<title>4-&gt;8</title>
<path fill="none" stroke="#000000" d="M48.125,-59.9375C39.8105,-48.9775 25.9098,-30.6539 17.6827,-19.809"/>
</g>
<!-- 9 -->
<g id="node9" class="node">
<title>9</title>
<ellipse fill="#ffffff" stroke="#000000" cx="55" cy="-11" rx="11" ry="11"/>
<text text-anchor="middle" x="55" y="-6.8" font-family="Times,serif" font-size="14.00" fill="#000000">0</text>
</g>
<!-- 4&#45;&gt;9 -->
<g id="edge8" class="edge">
<title>4-&gt;9</title>
<path fill="none" stroke="#000000" d="M55,-57.817C55,-47.5465 55,-32.4083 55,-22.1487"/>
</g>
<!-- 10 -->
<g id="node10" class="node">
<title>10</title>
<ellipse fill="#ffffff" stroke="#000000" cx="99" cy="-11" rx="11" ry="11"/>
<text text-anchor="middle" x="99" y="-6.8" font-family="Times,serif" font-size="14.00" fill="#000000">0</text>
</g>
<!-- 5&#45;&gt;10 -->
<g id="edge9" class="edge">
<title>5-&gt;10</title>
<path fill="none" stroke="#000000" d="M117.0668,-58.6308C113.1119,-48.204 107.0432,-32.2049 103.048,-21.6719"/>
</g>
<!-- 11 -->
<g id="node11" class="node">
<title>11</title>
<ellipse fill="#ffffff" stroke="#000000" cx="143" cy="-11" rx="11" ry="11"/>
<text text-anchor="middle" x="143" y="-6.8" font-family="Times,serif" font-size="14.00" fill="#000000">0</text>
</g>
<!-- 5&#45;&gt;11 -->
<g id="edge10" class="edge">
<title>5-&gt;11</title>
<path fill="none" stroke="#000000" d="M124.9332,-58.6308C128.8881,-48.204 134.9568,-32.2049 138.952,-21.6719"/>
</g>
<!-- 12 -->
<g id="node12" class="node">
<title>12</title>
<ellipse fill="#ffffff" stroke="#000000" cx="187" cy="-11" rx="11" ry="11"/>
<text text-anchor="middle" x="187" y="-6.8" font-family="Times,serif" font-size="14.00" fill="#000000">0</text>
</g>
<!-- 6&#45;&gt;12 -->
<g id="edge11" class="edge">
<title>6-&gt;12</title>
<path fill="none" stroke="#000000" d="M205.0668,-58.6308C201.1119,-48.204 195.0432,-32.2049 191.048,-21.6719"/>
</g>
<!-- 13 -->
<g id="node13" class="node">
<title>13</title>
<ellipse fill="#ffffff" stroke="#000000" cx="231" cy="-11" rx="11" ry="11"/>
<text text-anchor="middle" x="231" y="-6.8" font-family="Times,serif" font-size="14.00" fill="#000000">0</text>
</g>
<!-- 6&#45;&gt;13 -->
<g id="edge12" class="edge">
<title>6-&gt;13</title>
<path fill="none" stroke="#000000" d="M212.9332,-58.6308C216.8881,-48.204 222.9568,-32.2049 226.952,-21.6719"/>
</g>
<!-- 14 -->
<g id="node14" class="node">
<title>14</title>
<ellipse fill="#ffffff" stroke="#000000" cx="275" cy="-11" rx="11" ry="11"/>
<text text-anchor="middle" x="275" y="-6.8" font-family="Times,serif" font-size="14.00" fill="#000000">0</text>
</g>
<!-- 7&#45;&gt;14 -->
<g id="edge13" class="edge">
<title>7-&gt;14</title>
<path fill="none" stroke="#000000" d="M275,-57.817C275,-47.5465 275,-32.4083 275,-22.1487"/>
</g>
<!-- 15 -->
<g id="node15" class="node">
<title>15</title>
<ellipse fill="#ffffff" stroke="#000000" cx="319" cy="-11" rx="11" ry="11"/>
<text text-anchor="middle" x="319" y="-6.8" font-family="Times,serif" font-size="14.00" fill="#000000">0</text>
</g>
<!-- 7&#45;&gt;15 -->
<g id="edge14" class="edge">
<title>7-&gt;15</title>
<path fill="none" stroke="#000000" d="M281.875,-59.9375C290.1895,-48.9775 304.0902,-30.6539 312.3173,-19.809"/>
</g>
</g>
</svg>